{"title":"The Foreigner (2003) 1080P WEB-DL","uid":11720003,"size":3879604214,"categoryP":"video","categoryS":"hd___movies","magnet":"?xt=urn:btih:03f13b48496a0440f42490028bc8443da44de7be&amp;dn=The+Foreigner+%282003%29+1080P+WEB-DL&amp;tr=udp%3A%2F%2Ftracker.openbittorrent.com%3A80&amp;tr=udp%3A%2F%2Fopen.demonii.com%3A1337&amp;tr=udp%3A%2F%2Ftracker.coppersurfer.tk%3A6969&amp;tr=udp%3A%2F%2Fexodus.desync.com%3A6969","seeders":2,"leechers":1,"uploader":"jmanwf","files":3,"time":1424774169,"description":"Storyline\n\nJonathon Cold is a freelance agent hired by a mysterious man to deliver a package from France to Germany. The contents of the package remain undisclosed, even between employer and employee, but whatever it contains seems to be attracting a swarm of political corruption, backstabbing bad guys and murder. However, Cold knows he must stay one step ahead of the evil powers at work, whoever they are, no matter what the cost, as it increasingly becomes a game of step on or be stepped on.\n\n\nVideo\nID : 2\nFormat : AVC\nFormat/Info : Advanced Video Codec\nFormat profile : &lt;a class=&quot;__cf_email__&quot; href=&quot;/cdn-cgi/l/email-protection&quot; data-cfemail=&quot;054d6c626d4549312b35&quot;&gt;[email&amp;#160;protected]&lt;/a&gt;&lt;script cf-hash='f9e31' type=&quot;text/javascript&quot;&gt;\n/* &lt;![CDATA[ */!function(){try{var t=&quot;currentScript&quot;in document?document.currentScript:function(){for(var t=document.getElementsByTagName(&quot;script&quot;),e=t.length;e--;)if(t[e].getAttribute(&quot;cf-hash&quot;))return t[e]}();if(t&amp;&amp;t.previousSibling){var e,r,n,i,c=t.previousSibling,a=c.getAttribute(&quot;data-cfemail&quot;);if(a){for(e=&quot;&quot;,r=parseInt(a.substr(0,2),16),n=2;a.length-n;n+=2)i=parseInt(a.substr(n,2),16)^r,e+=String.fromCharCode(i);e=document.createTextNode(e),c.parentNode.replaceChild(e,c)}}}catch(u){}}();/* ]]&gt; */&lt;/script&gt;\nFormat settings, CABAC : Yes\nFormat settings, ReFrames : 4 frames\nFormat settings, GOP : M=2, N=119\nCodec ID : avc1\nCodec ID/Info : Advanced Video Coding\nDuration : 1h 35mn\nBit rate : 5 259 Kbps\nWidth : 1 916 pixels\nHeight : 1 076 pixels\nDisplay aspect ratio : 16:9\nFrame rate mode : Constant\nFrame rate : 23.976 fps\nColor space : YUV\nChroma subsampling : 4:2:0\nBit depth : 8 bits\nScan type : Progressive\nBits/(Pixel*Frame) : 0.106\nStream size : 3.52 GiB (98%)\nLanguage : English\nEncoded date : UTC 2014-12-08 04:35:52\nTagged date : UTC 2014-12-08 04:45:12\nColor primaries : BT.709\nTransfer characteristics : BT.709\nMatrix coefficients : BT.709\n\nAudio\nID : 1\nFormat : AAC\nFormat/Info : Advanced Audio Codec\nFormat profile : LC\nCodec ID : 40\nDuration : 1h 35mn\nBit rate mode : Variable\nBit rate : 126 Kbps\nMaximum bit rate : 196 Kbps\nChannel(s) : 2 channels\nChannel positions : Front: L R\nSampling rate : 48.0 KHz\nCompression mode : Lossy\nStream size : 86.5 MiB (2%)\nLanguage : English\nEncoded date : UTC 2014-12-08 04:35:52\nTagged date : UTC 2014-12-08 04:45:12","torrent":{"xt":"urn:btih:03f13b48496a0440f42490028bc8443da44de7be","amp;dn":"The+Foreigner+%282003%29+1080P+WEB-DL","amp;tr":["udp%3A%2F%2Ftracker.openbittorrent.com%3A80","udp%3A%2F%2Fopen.demonii.com%3A1337","udp%3A%2F%2Ftracker.coppersurfer.tk%3A6969","udp%3A%2F%2Fexodus.desync.com%3A6969"],"infoHash":"03f13b48496a0440f42490028bc8443da44de7be","infoHashBuffer":{"type":"Buffer","data":[3,241,59,72,73,106,4,64,244,36,144,2,139,200,68,61,164,77,231,190]},"announce":[],"urlList":[]}}